<svg width="256" height="256" viewBox="0 0 256 256" fill="none" xmlns="http://www.w3.org/2000/svg">
<rect width="256" height="256" fill="white"/>
<path d="M77.4577 0.0256211C62.6307 0.0256211 49.2704 4.58032 37.583 13.7182C25.804 22.6568 16.5457 34.8976 9.85409 50.4405C3.27706 66.0119 0 83.4621 0 102.535C0 119.444 2.68123 134.987 8.02077 149.505C13.3832 163.938 20.8769 175.923 30.5018 185.374C40.1268 194.882 51.1496 200.945 63.5016 203.621L37.8351 215.292C33.7101 217.191 31.6477 221.1 31.6477 226.964C31.6477 230.38 32.6422 233.426 34.6268 236.073C36.7672 238.92 39.3018 240.343 42.1892 240.343C45.3975 240.343 48.835 239.205 52.5246 236.927C54.0531 235.976 55.5725 235.122 57.1079 234.362C58.7899 233.793 60.5453 233.508 62.3787 233.508C66.5036 233.508 70.1015 234.174 73.1723 235.504C76.2202 237.024 80.1389 239.404 84.8826 242.621C91.1618 247.004 97.1888 250.307 103.01 252.584C108.83 254.864 116.393 256 125.72 256C131.541 256 137.957 254.577 144.993 251.73C152.028 248.883 157.986 245.183 162.89 240.628C167.794 236.073 170.224 231.319 170.224 226.366C170.224 222.95 169.153 219.904 167.015 217.257C165.026 214.786 162.73 213.556 160.14 213.556C158.763 213.556 157.39 213.934 156.015 214.695C154.792 215.645 153.334 216.878 151.661 218.395C150.133 220.106 148.751 221.527 147.536 222.665C144.626 225.324 141.578 227.419 138.37 228.928C135.161 230.448 131.334 231.208 126.889 231.208C121.847 231.208 117.264 230.257 113.116 228.361C108.991 226.651 104.178 224.091 98.6554 220.675C94.2096 217.829 90.4055 215.551 87.1743 213.843C84.1264 212.323 80.666 211.279 76.839 210.712L94.2784 202.741C106.218 199.695 116.759 193.433 125.903 183.925C135.07 174.417 142.197 162.66 147.238 148.626C152.44 134.563 155.03 119.305 155.03 102.509C155.03 83.3226 151.661 66.0717 144.947 50.4149C138.37 34.8435 129.203 22.5743 117.447 13.6926C105.668 4.58317 92.468 0 77.5723 0L77.4577 0.0256211ZM77.4577 27.0976C87.8618 27.0976 97.1201 30.4283 105.187 37.0611C113.437 43.5231 119.876 52.5471 124.459 64.1331C129.043 75.5198 131.334 88.3584 131.334 102.563C131.334 116.825 129.043 129.721 124.459 141.278C119.876 152.665 113.437 161.689 105.187 168.35C97.0742 174.812 87.816 178.029 77.4577 178.029C67.0536 178.029 57.7266 174.812 49.4996 168.35C41.3872 161.689 35.0393 152.665 30.456 141.278C25.8727 129.692 23.5811 116.768 23.5811 102.563C23.5811 88.1307 25.8727 75.2067 30.456 63.8484C35.0393 52.2624 41.3872 43.2384 49.4996 36.7764C57.7495 30.3144 67.0995 27.0976 77.4577 27.0976ZM241.311 49.615C232.74 49.8048 225.109 52.8317 218.394 58.7244C211.657 64.4178 206.615 71.933 203.246 81.2417V66.6951C203.246 62.909 202.176 59.6638 200.038 57.0164C198.049 54.3576 195.455 53.031 192.246 53.031C189.198 53.031 186.586 54.3604 184.455 57.0164C182.466 59.6752 181.476 62.909 181.476 66.6951V188.533C181.476 192.519 182.47 195.849 184.455 198.497C186.444 200.968 189.038 202.198 192.246 202.198C195.455 202.198 198.067 200.868 200.038 198.212C202.178 195.553 203.246 192.32 203.246 188.533V119.928C203.246 111.189 204.624 103.304 207.371 96.2722C210.282 89.0416 213.948 83.4621 218.394 79.4483C222.977 75.2636 227.652 73.1856 232.396 73.1856C234.232 73.1856 236.75 73.8517 239.958 75.1811C242.708 76.3198 244.771 76.892 246.146 76.892C248.896 76.892 251.188 75.7533 253.021 73.4759C255.01 71.005 256 67.4979 256 62.9432C256 59.1571 254.547 55.9972 251.646 53.5491C248.735 50.8903 245.298 49.5637 241.311 49.5637V49.615Z" fill="#34A19B"/>
</svg>
